<svg width="65" height="65" viewBox="0 0 65 65" fill="none" xmlns="http://www.w3.org/2000/svg">
<g clip-path="url(#clip0_23_54)">
<path d="M51.8374 35.0458C51.9457 34.2333 51.9999 33.3937 51.9999 32.5C51.9999 31.6333 51.9457 30.7667 51.8103 29.9542L57.3082 25.675C57.7957 25.2958 57.9311 24.5646 57.6332 24.0229L52.4332 15.0312C52.1082 14.4354 51.4311 14.2458 50.8353 14.4354L44.3624 17.0354C43.0082 16.0062 41.5728 15.1396 39.9749 14.4896L38.9999 7.61042C38.8915 6.96042 38.3499 6.5 37.6999 6.5H27.2999C26.6499 6.5 26.1353 6.96042 26.027 7.61042L25.052 14.4896C23.4541 15.1396 21.9916 16.0333 20.6645 17.0354L14.1916 14.4354C13.5957 14.2187 12.9186 14.4354 12.5936 15.0312L7.42072 24.0229C7.09572 24.5917 7.20406 25.2958 7.74572 25.675L13.2436 29.9542C13.1082 30.7667 12.9999 31.6604 12.9999 32.5C12.9999 33.3396 13.0541 34.2333 13.1895 35.0458L7.69156 39.325C7.20406 39.7041 7.06864 40.4354 7.36656 40.9771L12.5666 49.9687C12.8916 50.5646 13.5686 50.7541 14.1645 50.5646L20.6374 47.9646C21.9916 48.9937 23.427 49.8604 25.0249 50.5104L25.9999 57.3896C26.1353 58.0396 26.6499 58.5 27.2999 58.5H37.6999C38.3499 58.5 38.8916 58.0396 38.9728 57.3896L39.9478 50.5104C41.5457 49.8604 43.0082 48.9937 44.3353 47.9646L50.8082 50.5646C51.404 50.7812 52.0811 50.5646 52.4061 49.9687L57.6061 40.9771C57.9311 40.3812 57.7957 39.7041 57.2811 39.325L51.8374 35.0458ZM32.4999 42.25C27.1374 42.25 22.7499 37.8625 22.7499 32.5C22.7499 27.1375 27.1374 22.75 32.4999 22.75C37.8624 22.75 42.2499 27.1375 42.2499 32.5C42.2499 37.8625 37.8624 42.25 32.4999 42.25Z" fill="white"/>
<circle cx="32.5" cy="32.5" r="12.5" fill="#3894A3"/>
</g>
<defs>
<clipPath id="clip0_23_54">
<rect width="65" height="65" fill="white"/>
</clipPath>
</defs>
</svg>
