<svg viewBox="0 0 445 324" fill="none" xmlns="http://www.w3.org/2000/svg">
    <g clip-path="url(#clip0_31_646)">
        <path
            d="M324.197 289.279C321.401 290.262 318.398 290.508 315.479 289.994C312.56 289.479 309.822 288.222 307.53 286.343C301.693 281.443 299.862 273.373 298.373 265.899L293.969 243.791L303.19 250.141C309.823 254.707 316.604 259.42 321.195 266.034C325.787 272.648 327.79 281.678 324.102 288.835"
            fill="#3894A3" />
        <path
            d="M322.773 317.583C323.933 309.127 325.128 300.562 324.312 292.015C323.588 284.424 321.272 277.012 316.558 270.931C314.055 267.711 311.01 264.951 307.559 262.777C306.66 262.209 305.831 263.635 306.727 264.2C312.698 267.974 317.317 273.546 319.917 280.113C322.788 287.417 323.249 295.378 322.755 303.136C322.456 307.828 321.82 312.489 321.182 317.144C321.132 317.355 321.163 317.576 321.27 317.765C321.377 317.953 321.552 318.093 321.758 318.158C321.969 318.215 322.194 318.186 322.384 318.078C322.573 317.97 322.713 317.792 322.772 317.582L322.773 317.583Z"
            fill="#F2F2F2" />
        <path
            d="M314.418 304.015C313.219 305.838 311.57 307.321 309.632 308.322C307.693 309.323 305.528 309.808 303.348 309.73C297.742 309.464 293.071 305.553 288.866 301.839L276.427 290.856L284.659 290.462C290.58 290.179 296.653 289.913 302.292 291.741C307.931 293.568 313.132 297.961 314.163 303.797"
            fill="#E6E6E6" />
        <path
            d="M326.053 322.444C320.465 312.557 313.985 301.568 302.403 298.056C299.183 297.083 295.807 296.734 292.456 297.029C291.4 297.12 291.663 298.748 292.717 298.657C298.334 298.191 303.941 299.674 308.592 302.857C313.068 305.904 316.554 310.14 319.503 314.631C321.31 317.383 322.929 320.251 324.547 323.116C325.064 324.031 326.577 323.37 326.053 322.444Z"
            fill="#F2F2F2" />
        <path
            d="M200.532 207.504C217.287 207.504 230.87 193.922 230.87 177.167C230.87 160.412 217.287 146.83 200.532 146.83C183.778 146.83 170.195 160.412 170.195 177.167C170.195 193.922 183.778 207.504 200.532 207.504Z"
            fill="white" />
        <path
            d="M200.532 208.012C194.432 208.012 188.468 206.203 183.396 202.813C178.323 199.424 174.37 194.607 172.035 188.971C169.701 183.334 169.09 177.133 170.28 171.149C171.47 165.166 174.408 159.67 178.722 155.356C183.035 151.043 188.531 148.105 194.515 146.915C200.498 145.725 206.7 146.335 212.336 148.67C217.972 151.005 222.79 154.958 226.179 160.03C229.568 165.103 231.377 171.066 231.377 177.167C231.368 185.345 228.115 193.185 222.333 198.967C216.55 204.75 208.71 208.002 200.532 208.012ZM200.532 147.337C194.633 147.337 188.865 149.087 183.96 152.365C179.054 155.642 175.231 160.301 172.973 165.752C170.716 171.202 170.125 177.2 171.276 182.986C172.427 188.773 175.268 194.088 179.44 198.259C183.611 202.431 188.927 205.272 194.713 206.423C200.499 207.574 206.497 206.983 211.948 204.726C217.398 202.468 222.057 198.645 225.335 193.739C228.612 188.834 230.362 183.067 230.362 177.167C230.353 169.258 227.207 161.676 221.615 156.084C216.023 150.492 208.441 147.346 200.532 147.337Z"
            fill="#3F3D56" />
        <path
            d="M195.413 200.209L195.211 200.122C195.095 200.073 192.376 198.844 193.353 193.765L193.37 193.709L193.732 192.902C194.796 190.521 195.316 187.934 195.254 185.327C193.069 185.277 181.868 184.959 180.557 183.742C180.117 183.335 179.852 182.775 179.816 182.177L179.749 181.109C179.728 180.782 179.775 180.454 179.886 180.146C179.997 179.837 180.171 179.555 180.395 179.316C180.619 179.077 180.89 178.887 181.191 178.757C181.492 178.627 181.816 178.559 182.144 178.559H182.789L182.333 178.037C181.967 177.62 181.766 177.084 181.766 176.529V175.645C181.766 175.236 181.875 174.835 182.082 174.483C182.29 174.131 182.587 173.84 182.944 173.642L183.311 173.438L183.1 173.227C182.804 172.932 182.595 172.561 182.495 172.155C182.395 171.749 182.408 171.323 182.533 170.924C182.658 170.525 182.889 170.167 183.203 169.89C183.516 169.613 183.899 169.428 184.31 169.353L186.708 168.917C186.758 168.056 187.11 167.24 187.703 166.613C188.295 165.987 189.089 165.589 189.946 165.491L196.801 164.7C200.346 164.068 203.96 163.908 207.548 164.225L208.598 164.317L219.204 163.052V177.231L209.396 178.577L201.136 188.151C199.743 192.19 197.924 196.07 195.708 199.723L195.413 200.209Z"
            fill="#FFB7B7" />
        <path opacity="0.2"
            d="M194.514 199.079L194.051 198.872L195.645 195.308L197.512 195.884L197.363 196.369L195.925 195.926L194.514 199.079Z"
            fill="black" />
        <path
            d="M175.638 166.051L172.391 121L173.009 105.964L160.353 108.78L165.014 167.811C164.486 168.899 164.268 170.112 164.382 171.316C164.497 172.52 164.941 173.669 165.664 174.638C166.388 175.607 167.365 176.359 168.487 176.81C169.609 177.262 170.834 177.396 172.027 177.198C173.221 177.001 174.337 176.479 175.253 175.689C176.17 174.9 176.852 173.874 177.224 172.723C177.597 171.573 177.646 170.341 177.367 169.165C177.087 167.988 176.489 166.911 175.638 166.051V166.051Z"
            fill="#FFB7B7" />
        <path
            d="M113.404 124.612L112.599 109.517L104.477 102.918L99.7709 116.895L73.453 151.996C72.2087 152.195 71.0476 152.747 70.107 153.586C69.1664 154.424 68.4857 155.515 68.1454 156.728C67.8051 157.941 67.8196 159.227 68.1869 160.432C68.5543 161.638 69.2593 162.713 70.2184 163.53C71.1776 164.347 72.3508 164.873 73.5992 165.044C74.8476 165.215 76.119 165.026 77.263 164.497C78.4069 163.969 79.3755 163.123 80.0542 162.062C80.7329 161 81.0932 159.766 81.0926 158.506C81.0926 158.417 81.0828 158.331 81.0793 158.243L113.404 124.612Z"
            fill="#FFB7B7" />
        <path
            d="M114.86 119.78L95.0352 98.6208L109.756 67.8211C110.053 67.19 110.475 66.6254 110.996 66.1611C111.517 65.6968 112.126 65.3422 112.787 65.1187C113.437 64.8959 114.125 64.8064 114.81 64.8557C115.496 64.9049 116.164 65.0918 116.775 65.4053L116.92 65.4787L114.86 119.78Z"
            fill="#3894A3" />
        <path
            d="M159.101 116.445L155.579 95.8002L155.592 95.7482L163.918 63.02L164.698 62.9293C166.947 62.6812 169.208 63.2813 171.039 64.612C172.869 65.9427 174.137 67.9084 174.595 70.1247L182.441 109.184L159.101 116.445Z"
            fill="#3894A3" />
        <path
            d="M163.585 54.1833H121.45V35.1464C121.45 29.5589 123.67 24.2003 127.621 20.2494C131.572 16.2985 136.93 14.0789 142.518 14.0789C148.105 14.0789 153.464 16.2985 157.415 20.2494C161.366 24.2003 163.585 29.5589 163.585 35.1464V54.1833Z"
            fill="#2F2E41" />
        <path d="M217.414 291.31L210.283 297.312L183.74 272.663L194.265 263.805L217.414 291.31Z"
            fill="#FFB7B7" />
        <path
            d="M225.05 296.691L202.057 316.043L201.812 315.753C199.815 313.379 198.842 310.309 199.107 307.218C199.373 304.127 200.856 301.269 203.229 299.271L203.23 299.27L217.273 287.451L225.05 296.691Z"
            fill="#2F2E41" />
        <path d="M110.528 314.623L101.208 314.623L96.7734 278.673L110.53 278.673L110.528 314.623Z"
            fill="#FFB7B7" />
        <path
            d="M112.906 323.658L82.8525 323.657V323.277C82.8528 320.174 84.0852 317.199 86.2789 315.006C88.4726 312.812 91.4477 311.58 94.55 311.579H94.5508L112.906 311.58L112.906 323.658Z"
            fill="#2F2E41" />
        <path
            d="M69.6514 305.6L74.2907 252.496C76.644 225.602 82.1815 199.081 90.7871 173.492L110.215 115.747L111.911 102.299C106.742 91.5794 112.217 83.4153 112.848 82.5343L112.174 69.1758C112.16 68.913 112.142 68.6592 112.124 68.4143C111.931 65.7898 112.071 64.2772 117.193 63.7106L159.688 62.4003C165.065 62.378 168.325 63.2718 169.649 65.178C171.173 67.3717 169.964 70.5505 168.795 73.6247C168.674 73.9444 168.552 74.2642 168.433 74.5839L151.601 119.779C159.747 135.526 158.177 159.609 158.16 159.851L158.757 166.973L220.545 267.948L184.012 302.062L183.849 301.797L124.999 206.099L124.493 302.553L124.255 302.566L69.6514 305.6Z"
            fill="#2F2E41" />
        <path
            d="M157.142 45.7947C161.704 37.4498 158.637 26.987 150.292 22.4253C141.947 17.8636 131.485 20.9304 126.923 29.2753C122.361 37.6202 125.428 48.083 133.773 52.6447C142.118 57.2064 152.581 54.1396 157.142 45.7947Z"
            fill="#FFB7B7" />
        <path
            d="M150.346 22.9257C156.676 22.9257 161.809 17.7936 161.809 11.4629C161.809 5.13209 156.676 0 150.346 0C144.015 0 138.883 5.13209 138.883 11.4629C138.883 17.7936 144.015 22.9257 150.346 22.9257Z"
            fill="#2F2E41" />
        <path
            d="M165.616 38.4461H123.481V38.1923C123.481 32.6048 125.701 27.2462 129.652 23.2953C133.603 19.3444 138.962 17.1248 144.549 17.1248C150.136 17.1248 155.495 19.3444 159.446 23.2953C163.397 27.2462 165.616 32.6048 165.616 38.1923V38.4461Z"
            fill="#2F2E41" />
        <path
            d="M56.3596 164.861C73.1144 164.861 86.6968 151.279 86.6968 134.524C86.6968 117.769 73.1144 104.187 56.3596 104.187C39.6049 104.187 26.0225 117.769 26.0225 134.524C26.0225 151.279 39.6049 164.861 56.3596 164.861Z"
            fill="white" />
        <path
            d="M56.3594 165.369C50.2589 165.369 44.2954 163.56 39.223 160.17C34.1506 156.781 30.1971 151.964 27.8626 146.328C25.528 140.692 24.9172 134.49 26.1073 128.506C27.2975 122.523 30.2352 117.027 34.5489 112.713C38.8626 108.4 44.3587 105.462 50.342 104.272C56.3253 103.082 62.5271 103.693 68.1633 106.027C73.7994 108.362 78.6167 112.315 82.006 117.388C85.3952 122.46 87.2042 128.423 87.2042 134.524C87.195 142.702 83.9423 150.542 78.1597 156.324C72.3772 162.107 64.5371 165.36 56.3594 165.369ZM56.3594 104.695C50.4597 104.695 44.6925 106.444 39.787 109.722C34.8816 112.999 31.0583 117.658 28.8006 123.109C26.5429 128.559 25.9521 134.557 27.1031 140.343C28.2541 146.13 31.0951 151.445 35.2668 155.617C39.4386 159.788 44.7537 162.629 50.54 163.78C56.3264 164.931 62.3241 164.341 67.7747 162.083C73.2253 159.825 77.8841 156.002 81.1618 151.096C84.4395 146.191 86.1889 140.424 86.1889 134.524C86.18 126.615 83.0344 119.033 77.4422 113.441C71.85 107.849 64.2679 104.703 56.3594 104.695Z"
            fill="#3F3D56" />
        <path
            d="M37.6885 148.638V134.46L47.4964 133.114L55.7563 123.54C57.1494 119.501 58.9689 115.621 61.1841 111.968L61.4791 111.481L61.6818 111.568C61.7979 111.618 64.5166 112.847 63.5398 117.925L63.5222 117.982L63.1601 118.789C62.0967 121.17 61.5767 123.757 61.638 126.363C63.8232 126.414 75.0246 126.732 76.3358 127.95C76.7751 128.356 77.0406 128.916 77.0768 129.514L77.1436 130.582C77.1641 130.909 77.1173 131.237 77.0061 131.545C76.895 131.854 76.7219 132.136 76.4974 132.375C76.273 132.614 76.002 132.804 75.7011 132.934C75.4003 133.065 75.0759 133.132 74.7481 133.132H74.1033L74.5598 133.654C74.9253 134.071 75.1268 134.607 75.1268 135.162V136.046C75.1266 136.455 75.0173 136.856 74.8101 137.208C74.6029 137.56 74.3053 137.851 73.9482 138.049L73.5816 138.253L73.7924 138.464C74.0881 138.759 74.2972 139.13 74.3971 139.536C74.497 139.942 74.484 140.368 74.3593 140.767C74.2346 141.166 74.0031 141.524 73.6898 141.801C73.3765 142.078 72.9934 142.264 72.582 142.338L70.1839 142.774C70.134 143.635 69.7819 144.451 69.1897 145.077C68.5975 145.704 67.8031 146.102 66.9465 146.2L60.0917 146.991C56.546 147.623 52.932 147.783 49.3442 147.466L48.2944 147.373L37.6885 148.638Z"
            fill="#FFB7B7" />
        <path opacity="0.2"
            d="M61.2466 116.383L59.3789 115.807L59.5282 115.322L60.9663 115.765L62.3776 112.612L62.8411 112.819L61.2466 116.383Z"
            fill="black" />
        <path
            d="M444.277 324H0.507651C0.373014 324 0.24389 323.946 0.148687 323.851C0.0534842 323.756 0 323.627 0 323.492C0 323.358 0.0534842 323.228 0.148687 323.133C0.24389 323.038 0.373014 322.985 0.507651 322.985H444.277C444.412 322.985 444.541 323.038 444.636 323.133C444.731 323.228 444.785 323.358 444.785 323.492C444.785 323.627 444.731 323.756 444.636 323.851C444.541 323.946 444.412 324 444.277 324Z"
            fill="#CBCBCB" />
    </g>
    <defs>
        <clipPath id="clip0_31_646">
            <rect width="444.785" height="324" fill="white" />
        </clipPath>
    </defs>
</svg>